# 3ds Max Wavefront OBJ Exporter v0.97b - (c)2007 guruware
# File Created: 21.11.2018 15:47:09

mtllib SpaceShip2.mtl

#
# object Box001
#

v  -12.1850 0.0000 46.0961
v  -12.1850 -1.9400 35.9308
v  -2.0197 -0.9700 35.9308
v  -2.0197 0.0000 43.5369
v  8.1455 4.3232 35.9308
v  -2.0197 5.7468 28.3247
v  -2.0197 6.7168 35.9308
v  -2.0197 5.7468 43.5369
v  -12.1850 5.7468 46.0961
v  8.1455 1.4236 35.9308
v  -2.0197 0.0000 28.3247
v  -27.4191 -0.7862 32.5424
v  -27.4191 -0.9906 35.9308
v  -27.4191 6.7374 35.9308
v  -27.4191 6.5330 32.5424
v  -27.4191 0.0000 46.0961
v  -27.4191 -0.7862 39.3192
v  -27.4191 5.7468 46.0961
v  -12.1850 5.7468 25.7656
v  -27.4191 5.7468 25.7656
v  -12.1850 0.0000 25.7656
v  -27.4191 0.0000 25.7656
v  -34.3134 0.6856 39.7668
v  -34.3134 0.6856 45.6485
v  -34.3134 5.0612 45.6485
v  -34.3134 5.0612 39.7668
v  -34.3134 5.0612 32.1011
v  -34.3134 5.0612 26.2068
v  -34.3134 0.6856 26.2068
v  -34.3134 0.6856 32.1011
v  -27.4191 6.5330 39.3192
v  -12.1850 7.6868 35.9308
# 32 vertices

vn 0.0885 -0.6178 0.7814
vn 0.0163 -0.9999 -0.0000
vn 0.1616 -0.9869 -0.0000
vn 0.3517 -0.6248 0.6971
vn 0.8805 0.4741 -0.0000
vn 0.3517 0.6248 -0.6971
vn 0.1616 0.9869 -0.0000
vn 0.3517 0.6248 0.6971
vn 0.0885 0.6178 0.7814
vn 0.8805 -0.4741 -0.0000
vn 0.3517 -0.6248 -0.6971
vn -0.3881 -0.9028 0.1852
vn -0.7159 -0.6982 -0.0000
vn -0.7159 0.6982 -0.0000
vn -0.3881 0.9028 0.1852
vn -0.0559 -0.6685 0.7416
vn -0.3884 -0.9027 -0.1852
vn -0.0559 0.6685 0.7416
vn 0.0885 0.6178 -0.7814
vn -0.0556 0.6686 -0.7415
vn 0.0885 -0.6178 -0.7814
vn -0.0556 -0.6686 -0.7415
vn -0.6469 -0.5100 -0.5670
vn -0.6201 -0.5482 0.5613
vn -0.6201 0.5482 0.5613
vn -0.6469 0.5100 -0.5670
vn -0.6466 0.5099 0.5673
vn -0.6198 0.5481 -0.5616
vn -0.6198 -0.5481 -0.5616
vn -0.6466 -0.5099 0.5673
vn -0.3884 0.9027 -0.1852
vn 0.0163 0.9999 -0.0000
# 32 vertex normals

vt 1.0000 0.0000 0.0000
vt 1.0000 0.5000 0.0000
vt 0.5000 0.7500 0.0000
vt 0.5000 0.5000 0.0000
vt 0.5000 0.2500 0.0000
vt 0.0000 0.0000 0.0000
vt 0.5000 0.0000 0.0000
vt 0.5000 1.0000 0.0000
vt 0.0000 1.0000 0.0000
vt 0.3333 0.0000 0.0000
vt 0.3333 1.0000 0.0000
vt 0.6667 0.0000 0.0000
vt 1.0000 1.0000 0.0000
vt 0.6667 1.0000 0.0000
vt 0.0000 0.5000 0.0000
# 15 texture coords

o Box001
g Box001
usemtl wire_135110008
s 2
f 1/1/1 2/2/2 3/3/3 4/4/4 
s 4
f 5/1/5 6/4/6 7/5/7 
s 8
f 1/6/1 4/7/4 8/8/8 9/9/9 
s 32
f 10/6/10 11/7/11 6/8/6 5/9/5 
s 64
f 12/10/12 13/7/13 14/8/14 15/11/15 
s off
f 1/1/1 16/1/16 17/12/17 
f 1/1/1 9/13/9 18/13/18 16/1/16 
f 19/9/19 20/9/20 15/11/15 
f 19/9/19 21/6/21 22/6/22 20/9/20 
s 64
f 23/12/23 24/1/24 25/13/25 26/14/26 
f 27/11/27 28/9/28 29/6/29 30/10/30 
s off
f 16/1/16 18/13/18 25/13/25 24/1/24 
f 18/13/18 31/14/31 26/14/26 25/13/25 
f 31/14/31 17/12/17 23/12/23 26/14/26 
f 17/12/17 16/1/16 24/1/24 23/12/23 
f 22/6/22 12/10/12 30/10/30 29/6/29 
f 12/10/12 15/11/15 27/11/27 30/10/30 
f 15/11/15 20/9/20 28/9/28 27/11/27 
f 20/9/20 22/6/22 29/6/29 28/9/28 
f 15/11/15 14/8/14 32/8/32 19/9/19 
f 31/14/31 18/13/18 9/13/9 
f 12/10/12 22/6/22 21/6/21 
f 17/12/17 13/7/13 2/7/2 1/1/1 
s 64
f 13/7/13 17/12/17 31/14/31 14/8/14 
s off
f 14/8/14 31/14/31 9/13/9 32/8/32 
f 13/7/13 12/10/12 21/6/21 2/7/2 
s 4
f 32/15/32 9/6/9 8/7/8 7/5/7 
s 2
f 2/2/2 21/13/21 11/8/11 3/3/3 
f 3/3/3 10/9/10 4/4/4 
s 4
f 6/4/6 19/9/19 32/15/32 7/5/7 
s 8
f 4/7/4 10/1/10 5/13/5 8/8/8 
s 32
f 11/7/11 21/1/21 19/13/19 6/8/6 
s 4
f 8/7/8 5/1/5 7/5/7 
s 2
f 11/8/11 10/9/10 3/3/3 
# 26 polygons - 8 triangles

