# Blender v2.79 (sub 0) OBJ File: ''
# www.blender.org
mtllib SpaceShip2.mtl
o Box001.001
v 0.021348 -0.008620 0.030496
v -0.024354 -0.008620 0.030496
v -0.024354 -0.010979 0.010165
v 0.021348 0.008620 0.030496
v -0.024354 0.008620 0.030496
v 0.021348 0.008620 -0.030496
v -0.024354 0.008620 -0.030496
v -0.024354 0.010979 -0.010165
v 0.021348 -0.008620 -0.030496
v -0.024354 -0.008620 -0.030496
v -0.045037 0.006563 0.029153
v -0.045037 -0.006563 0.029153
v -0.024354 0.010979 0.010165
v -0.045037 0.006563 0.011508
v -0.045037 -0.006563 0.011508
v -0.024354 -0.010979 -0.010165
v -0.045037 -0.006563 -0.011489
v -0.045037 -0.006563 -0.029172
v -0.045037 0.006563 -0.011489
v -0.045037 0.006563 -0.029172
v -0.024354 0.011592 -0.000000
v 0.021348 0.014440 -0.000000
v -0.024354 -0.011592 -0.000000
v 0.021348 -0.014440 -0.000000
v 0.051844 -0.011530 -0.000000
v 0.051844 -0.008620 0.022818
v 0.082340 0.004349 -0.000000
v 0.051844 0.008620 -0.022818
v 0.051844 0.011530 -0.000000
v 0.051844 0.008620 0.022818
v 0.082340 -0.004349 -0.000000
v 0.051844 -0.008620 -0.022818
vt 1.000000 0.000000
vt 1.000000 0.000000
vt 0.666700 0.000000
vt 1.000000 1.000000
vt 1.000000 1.000000
vt 0.000000 1.000000
vt 0.000000 1.000000
vt 0.333300 1.000000
vt 0.000000 0.000000
vt 0.000000 0.000000
vt 1.000000 1.000000
vt 1.000000 0.000000
vt 0.666700 1.000000
vt 0.666700 1.000000
vt 0.666700 0.000000
vt 0.333300 0.000000
vt 0.333300 0.000000
vt 0.000000 0.000000
vt 0.333300 1.000000
vt 0.000000 1.000000
vt 0.500000 1.000000
vt 0.500000 1.000000
vt 0.500000 0.000000
vt 0.500000 0.000000
vt 1.000000 0.500000
vt 0.500000 0.750000
vt 0.500000 0.500000
vt 1.000000 0.000000
vt 0.500000 0.500000
vt 0.500000 0.250000
vt 0.000000 0.000000
vt 0.500000 0.000000
vt 0.500000 1.000000
vt 0.000000 1.000000
vt 0.000000 0.000000
vt 0.500000 0.000000
vt 0.500000 1.000000
vt 0.000000 1.000000
vt 0.000000 0.500000
vt 0.000000 0.000000
vt 0.500000 0.000000
vt 1.000000 1.000000
vt 0.500000 1.000000
vt 0.000000 1.000000
vt 1.000000 0.000000
vt 1.000000 1.000000
vt 1.000000 0.000000
vt 1.000000 1.000000
vn 0.0885 -0.6178 0.7814
vn -0.0559 -0.6685 0.7416
vn -0.3884 -0.9027 -0.1852
vn 0.0885 0.6178 0.7814
vn -0.0559 0.6685 0.7416
vn 0.0885 0.6178 -0.7814
vn -0.0556 0.6686 -0.7415
vn -0.3881 0.9028 0.1852
vn 0.0885 -0.6178 -0.7814
vn -0.0556 -0.6686 -0.7415
vn -0.6201 0.5482 0.5613
vn -0.6201 -0.5482 0.5613
vn -0.3884 0.9027 -0.1852
vn -0.6469 0.5100 -0.5670
vn -0.6469 -0.5100 -0.5670
vn -0.3881 -0.9028 0.1852
vn -0.6467 -0.5099 0.5673
vn -0.6198 -0.5481 -0.5616
vn -0.6466 0.5099 0.5673
vn -0.6466 -0.5099 0.5673
vn -0.6198 0.5481 -0.5616
vn -0.6467 0.5099 0.5673
vn -0.7159 0.6982 -0.0000
vn 0.0163 0.9999 -0.0000
vn -0.7159 -0.6982 0.0000
vn 0.0163 -0.9999 0.0000
vn 0.0885 -0.6178 0.7813
vn 0.1616 -0.9869 -0.0000
vn 0.3517 -0.6248 0.6971
vn 0.8805 0.4741 0.0000
vn 0.3517 0.6248 -0.6971
vn 0.1616 0.9869 0.0000
vn 0.3517 0.6248 0.6971
vn 0.0885 0.6178 0.7813
vn 0.8805 -0.4741 -0.0000
vn 0.3517 -0.6248 -0.6971
vn -0.6201 -0.5481 0.5613
vn -0.6201 0.5481 0.5613
vn 0.0885 -0.6178 -0.7813
vn 0.0885 0.6178 -0.7813
usemtl wire_135110008.002
s off
f 1/1/1 2/2/2 3/3/3
f 1/1/1 4/4/4 5/5/5 2/2/2
f 6/6/6 7/7/7 8/8/8
f 6/6/6 9/9/9 10/10/10 7/7/7
f 2/2/2 5/5/5 11/11/11 12/12/12
f 5/5/5 13/13/13 14/14/14 11/11/11
f 13/13/13 3/3/3 15/15/15 14/14/14
f 3/3/3 2/2/2 12/12/12 15/15/15
f 10/10/10 16/16/16 17/17/17 18/18/18
f 16/16/16 8/8/8 19/19/19 17/17/20
f 8/8/8 7/7/7 20/20/21 19/19/22
f 7/7/7 10/10/10 18/18/18 20/20/21
f 8/8/8 21/21/23 22/22/24 6/6/6
f 13/13/13 5/5/5 4/4/4
f 16/16/16 10/10/10 9/9/9
f 3/3/3 23/23/25 24/24/26 1/1/1
f 21/21/23 13/13/13 4/4/4 22/22/24
f 23/23/25 16/16/16 9/9/9 24/24/26
s 1
f 1/1/27 24/25/26 25/26/28 26/27/29
f 27/28/30 28/29/31 29/30/32
f 1/31/27 26/32/29 30/33/33 4/34/34
f 31/35/35 32/36/36 28/37/31 27/38/30
f 16/16/16 23/23/25 21/21/23 8/8/8
f 15/15/15 12/12/37 11/11/38 14/14/14
f 19/19/19 20/20/21 18/18/18 17/17/20
f 23/23/25 3/3/3 13/13/13 21/21/23
f 22/39/24 4/40/34 30/41/33 29/30/32
f 24/25/26 9/42/39 32/43/36 25/26/28
f 25/26/28 31/44/35 26/27/29
f 28/29/31 6/6/40 22/39/24 29/30/32
f 26/32/29 31/45/35 27/46/30 30/33/33
f 32/36/36 9/47/39 6/48/40 28/37/31
f 30/41/33 27/28/30 29/30/32
f 32/43/36 31/44/35 25/26/28
o Box002
v 0.006501 -0.000000 0.025783
v 0.006501 -0.005650 -0.000000
v 0.016438 -0.004702 -0.000000
v 0.016438 -0.000000 0.024757
v 0.002915 -0.000000 0.025907
v 0.002915 -0.000069 0.025478
v 0.006501 0.017240 -0.025783
v 0.002915 0.017240 -0.025907
v 0.002915 0.017309 -0.025478
v -0.057294 0.019599 -0.009196
v -0.057294 0.020212 0.000000
v -0.049492 0.020570 0.000000
v -0.049492 0.019302 -0.011306
v -0.057294 0.019599 0.009197
v -0.050639 0.017967 0.019598
v -0.049492 0.017689 0.021360
v -0.049492 0.019302 0.011306
v -0.057294 -0.002359 -0.009197
v -0.050639 -0.000727 -0.019598
v -0.049492 -0.000448 -0.021360
v -0.049492 -0.002062 -0.011306
v -0.057294 -0.002359 0.009197
v -0.057294 -0.002972 -0.000000
v -0.049492 -0.003330 -0.000000
v -0.049492 -0.002062 0.011306
v 0.006501 0.022891 0.000000
v 0.006501 0.017240 0.025783
v 0.016438 0.017240 0.024757
v 0.016438 0.021943 0.000000
v 0.006501 0.000000 -0.025783
v 0.016438 0.000000 -0.024757
v 0.035219 -0.002910 -0.000000
v 0.037361 -0.002494 -0.000000
v 0.037361 0.000247 0.021497
v 0.035219 -0.000000 0.022818
v 0.035219 0.017240 -0.022818
v 0.020188 0.017240 -0.024370
v 0.020188 0.021585 0.000000
v 0.035219 0.020150 0.000000
v 0.057294 0.002549 0.009199
v 0.057294 0.014691 0.009199
v 0.040169 0.016669 0.019764
v 0.040169 0.000571 0.019764
v 0.035219 0.017240 0.022818
v 0.037361 0.016993 0.021497
v 0.037361 0.019735 0.000000
v 0.057294 0.002549 -0.009199
v 0.057294 0.001376 0.000000
v 0.040169 -0.001949 -0.000000
v 0.040169 0.000572 -0.019764
v 0.037361 0.016993 -0.021496
v 0.035219 0.000000 -0.022818
v 0.037361 0.000248 -0.021497
v 0.057294 0.015865 0.000000
v 0.057294 0.014691 -0.009199
v 0.020188 0.017240 0.024370
v 0.020188 0.014240 0.025554
v 0.028055 0.014240 0.024622
v -0.050639 -0.000727 0.019598
v -0.049492 -0.000448 0.021360
v 0.016438 0.003000 0.025998
v 0.002915 0.003000 0.027600
v 0.002915 0.000207 0.026279
v 0.028055 0.003000 0.024622
v 0.020188 0.000000 -0.024370
v 0.020188 0.003000 -0.025554
v 0.028055 0.003000 -0.024622
v 0.016438 0.017240 -0.024757
v 0.016438 0.014240 -0.025998
v 0.002915 0.014240 -0.027600
v 0.002915 0.017034 -0.026279
v 0.028055 0.014240 -0.024622
v -0.050639 0.017967 -0.019598
v -0.049492 0.017689 -0.021360
v -0.030179 0.006336 -0.060287
v -0.030179 0.010904 -0.060287
v -0.026593 0.011110 -0.058091
v -0.026593 0.006131 -0.058091
v -0.030179 0.006336 0.060287
v -0.026593 0.006131 0.058091
v -0.026593 0.011110 0.058091
v -0.030179 0.010904 0.060287
v 0.020188 0.003451 -0.029440
v 0.020188 0.013790 0.029440
v 0.040169 0.019189 0.000000
v 0.040169 0.016669 -0.019764
v 0.020188 -0.004344 -0.000000
v 0.020188 -0.000000 0.024370
v 0.020188 0.003000 0.025554
v 0.020188 0.014240 -0.025554
v 0.020188 0.013790 -0.029440
v 0.020188 0.003451 0.029440
v 0.002915 0.017034 0.026279
v 0.002915 0.014240 0.027600
v 0.016438 0.014240 0.025998
v 0.002915 0.000207 -0.026279
v 0.002915 0.003000 -0.027600
v 0.016438 0.003000 -0.025998
v 0.002915 0.004440 -0.040019
v 0.016438 0.003666 -0.031737
v 0.002915 0.012800 0.040019
v 0.016438 0.013575 0.031737
v 0.002915 0.022977 0.000000
v 0.002915 0.017240 0.025907
v 0.002915 0.017309 0.025478
v 0.002915 0.000000 -0.025907
v 0.002915 -0.000069 -0.025478
v 0.002915 -0.005737 -0.000000
v 0.002915 0.012800 -0.040019
v 0.016438 0.013575 -0.031737
v 0.002915 0.004440 0.040019
v 0.016438 0.003666 0.031737
v -0.002268 -0.000000 0.025735
v -0.018821 -0.000000 0.025186
v -0.018821 -0.000896 0.019600
v -0.002268 -0.000266 0.024077
v -0.002268 0.017240 -0.025735
v -0.018821 0.017240 -0.025186
v -0.018821 0.018136 -0.019600
v -0.002268 0.017506 -0.024076
v -0.002268 0.003000 0.028214
v -0.018821 0.003000 0.030176
v -0.018821 0.002691 0.030029
v -0.002268 0.000799 0.027173
v -0.002268 0.014240 -0.028214
v -0.018821 0.014240 -0.030175
v -0.018821 0.014549 -0.030029
v -0.002268 0.016442 -0.027173
v -0.002268 0.016441 0.027173
v -0.018821 0.014549 0.030029
v -0.018821 0.014240 0.030176
v -0.002268 0.014240 0.028214
v -0.002268 0.000799 -0.027173
v -0.018821 0.002691 -0.030029
v -0.018821 0.003000 -0.030176
v -0.002268 0.003000 -0.028214
v -0.018821 0.005686 -0.053331
v -0.002268 0.004737 -0.043193
v -0.018821 0.011555 0.053331
v -0.002268 0.012503 0.043193
v -0.018821 0.021979 0.000000
v -0.002268 0.022739 0.000000
v -0.018821 0.017240 0.025186
v -0.002268 0.017240 0.025735
v -0.002268 0.017506 0.024077
v -0.018821 0.018136 0.019600
v -0.018821 0.000000 -0.025186
v -0.002268 0.000000 -0.025735
v -0.002268 -0.000266 -0.024077
v -0.018821 -0.000895 -0.019600
v -0.018821 -0.004738 -0.000000
v -0.002268 -0.005499 -0.000000
v -0.018821 0.011555 -0.053331
v -0.002268 0.012503 -0.043193
v -0.018821 0.005686 0.053331
v -0.002268 0.004737 0.043193
v -0.026593 0.017240 0.024928
v -0.038732 0.017240 0.024525
v -0.038732 0.016214 0.026372
v -0.026593 0.014822 0.029281
v -0.026593 0.012287 -0.047941
v -0.026593 0.004954 -0.047941
v -0.026593 0.004954 0.047941
v -0.026593 0.012287 0.047941
v -0.026593 -0.000000 0.024928
v -0.038732 -0.000000 0.024525
v -0.038732 -0.001653 0.014216
v -0.026593 -0.001191 0.017499
v -0.026593 0.017240 -0.024928
v -0.038732 0.017240 -0.024525
v -0.038732 0.018893 -0.014216
v -0.026593 0.018431 -0.017499
v -0.038732 0.021065 0.000000
v -0.026593 0.021622 0.000000
v -0.026593 0.018431 0.017499
v -0.038732 0.018893 0.014216
v -0.038732 0.000000 -0.024525
v -0.026593 0.000000 -0.024928
v -0.026593 -0.001191 -0.017499
v -0.038732 -0.001653 -0.014216
v -0.038732 -0.003824 -0.000000
v -0.026593 -0.004382 -0.000000
v -0.038732 0.001026 0.026372
v -0.026593 0.002419 0.029281
v -0.038732 0.001026 -0.026372
v -0.026593 0.002419 -0.029281
v -0.026593 0.014822 -0.029281
v -0.038732 0.016214 -0.026372
vt 1.000000 0.000000
vt 1.000000 0.000000
vt 0.980700 0.000000
vt 0.000000 1.000000
vt 0.000000 1.000000
vt 0.019300 1.000000
vt 0.333300 1.000000
vt 0.500000 1.000000
vt 0.500000 1.000000
vt 0.271600 1.000000
vt 0.666700 1.000000
vt 1.000000 1.000000
vt 1.000000 1.000000
vt 0.728400 1.000000
vt 0.333300 0.000000
vt 0.000000 0.000000
vt 0.000000 0.000000
vt 0.271600 0.000000
vt 0.666700 0.000000
vt 0.500000 0.000000
vt 0.500000 0.000000
vt 0.728400 0.000000
vt 0.250000 0.750000
vt 0.250000 0.875000
vt 0.750000 0.125000
vt 0.750000 0.000000
vt 0.250000 1.000000
vt 0.750000 0.250000
vt 0.500000 1.000000
vt 0.230700 1.000000
vt 0.406600 1.000000
vt 0.500000 1.000000
vt 1.000000 0.000000
vt 1.000000 0.000000
vt 0.000000 0.000000
vt 0.192100 0.000000
vt 0.382800 0.000000
vt 0.228500 0.000000
vt 0.000000 0.000000
vt 0.500000 0.000000
vt 0.500000 0.000000
vt 0.500000 0.000000
vt 0.769300 0.000000
vt 0.593400 0.000000
vt 0.500000 0.000000
vt 1.000000 1.000000
vt 0.807900 1.000000
vt 0.617200 1.000000
vt 0.771500 1.000000
vt 1.000000 1.000000
vt 0.500000 1.000000
vt 0.500000 1.000000
vt 0.000000 1.000000
vt 0.000000 1.000000
vt 1.000000 0.000000
vt 0.000000 1.000000
vt 0.048300 1.000000
vt 0.951700 0.000000
vt 1.000000 0.000000
vt 0.951700 0.000000
vt 0.048300 1.000000
vt 0.000000 1.000000
vt 0.579500 0.000000
vt 0.420500 1.000000
vt 0.230700 0.000000
vt 0.406600 0.000000
vt 0.769300 1.000000
vt 0.593400 1.000000
vt 0.420500 1.000000
vt 0.579500 0.000000
vt 0.406600 1.000000
vt 0.593400 0.000000
vt 0.192100 1.000000
vt 0.000000 1.000000
vt 0.000000 1.000000
vt 0.228500 1.000000
vt 0.382800 1.000000
vt 0.807900 0.000000
vt 1.000000 0.000000
vt 1.000000 0.000000
vt 0.771500 0.000000
vt 0.617200 0.000000
vt 0.731100 0.000000
vt 0.599700 0.000000
vt 0.268900 1.000000
vt 0.400300 1.000000
vt 0.500000 1.000000
vt 0.500000 1.000000
vt 1.000000 1.000000
vt 1.000000 1.000000
vt 0.980700 1.000000
vt 0.000000 0.000000
vt 0.000000 0.000000
vt 0.019300 0.000000
vt 0.500000 0.000000
vt 0.500000 0.000000
vt 1.000000 0.000000
vt 0.000000 0.000000
vt 0.000000 1.000000
vt 1.000000 1.000000
vt 0.268900 1.000000
vt 0.400300 1.000000
vt 0.731100 0.000000
vt 0.599700 0.000000
vt 0.228500 1.000000
vt 0.382800 1.000000
vt 0.771500 0.000000
vt 0.617200 0.000000
vt 1.000000 0.000000
vt 1.000000 0.000000
vt 0.873500 0.000000
vt 0.962400 0.000000
vt 0.000000 1.000000
vt 0.000000 1.000000
vt 0.126500 1.000000
vt 0.037600 1.000000
vt 0.194200 0.000000
vt 0.027300 0.000000
vt 0.000000 0.000000
vt 0.000000 0.000000
vt 0.805800 1.000000
vt 0.972700 1.000000
vt 1.000000 1.000000
vt 1.000000 1.000000
vt 0.000000 1.000000
vt 0.000000 1.000000
vt 0.027300 1.000000
vt 0.194200 1.000000
vt 1.000000 0.000000
vt 1.000000 0.000000
vt 0.972700 0.000000
vt 0.805800 0.000000
vt 0.902500 0.000000
vt 0.760400 0.000000
vt 0.097500 1.000000
vt 0.239600 1.000000
vt 0.500000 1.000000
vt 0.500000 1.000000
vt 1.000000 1.000000
vt 1.000000 1.000000
vt 0.962400 1.000000
vt 0.873500 1.000000
vt 0.000000 0.000000
vt 0.000000 0.000000
vt 0.037600 0.000000
vt 0.126500 0.000000
vt 0.500000 0.000000
vt 0.500000 0.000000
vt 1.000000 0.000000
vt 1.000000 0.000000
vt 0.000000 0.000000
vt 0.000000 0.000000
vt 0.000000 1.000000
vt 0.000000 1.000000
vt 1.000000 1.000000
vt 1.000000 1.000000
vt 0.097500 1.000000
vt 0.239600 1.000000
vt 0.902500 0.000000
vt 0.760400 0.000000
vt 0.027300 1.000000
vt 0.194200 1.000000
vt 0.972700 0.000000
vt 0.805800 0.000000
vt 1.000000 1.000000
vt 1.000000 1.000000
vt 1.000000 1.000000
vt 1.000000 1.000000
vt 0.000000 1.000000
vt 1.000000 0.000000
vt 1.000000 0.000000
vt 0.000000 1.000000
vt 1.000000 0.000000
vt 1.000000 0.000000
vt 0.773100 0.000000
vt 0.842600 0.000000
vt 0.000000 1.000000
vt 0.000000 1.000000
vt 0.226900 1.000000
vt 0.157400 1.000000
vt 0.500000 1.000000
vt 0.500000 1.000000
vt 0.842600 1.000000
vt 0.773100 1.000000
vt 0.000000 0.000000
vt 0.000000 0.000000
vt 0.157400 0.000000
vt 0.226900 0.000000
vt 0.500000 0.000000
vt 0.500000 0.000000
vt 1.000000 0.000000
vt 1.000000 0.000000
vt 0.000000 0.000000
vt 0.000000 0.000000
vt 0.000000 1.000000
vt 0.000000 1.000000
vt 1.000000 0.500000
vt 0.807900 0.596000
vt 0.807900 0.192100
vt 0.000000 0.500000
vt 0.000000 0.000000
vt 0.192100 0.000000
vt 0.192100 0.404000
vt 1.000000 1.000000
vt 0.807900 1.000000
vt 0.500000 0.750000
vt 0.307300 0.846300
vt 0.307300 0.692700
vt 0.500000 0.500000
vt 0.500000 0.500000
vt 0.230700 0.769300
vt 0.230700 0.384600
vt 0.500000 0.250000
vt 0.750000 0.000000
vt 0.750000 1.000000
vt 0.707200 1.000000
vt 0.707200 0.000000
vt 0.500000 0.000000
vt 0.692700 0.000000
vt 0.692700 0.153700
vt 0.292800 0.853600
vt 0.292800 1.000000
vt 0.692700 0.307300
vt 0.307300 1.000000
vt 0.307300 0.000000
vt 0.292800 0.707200
vt 0.707200 0.000000
vt 0.707200 0.146400
vt 0.707200 0.292800
vt 0.292800 1.000000
vt 0.250000 1.000000
vt 0.250000 0.000000
vt 0.292800 0.000000
vt 0.692700 1.000000
vt 0.692700 0.000000
vt 0.500000 1.000000
vt 0.307300 1.000000
vt 0.769300 0.615400
vt 0.769300 0.230700
vt 0.230700 0.000000
vt 0.769300 1.000000
vt 0.192100 0.807900
vn 0.0531 -0.8147 0.5774
vn 0.0114 -0.9438 0.3303
vn 0.0027 -0.9819 0.1894
vn 0.0531 0.8147 -0.5774
vn 0.0114 0.9438 -0.3303
vn 0.0027 0.9819 -0.1894
vn -0.7147 0.6503 -0.2575
vn -0.7088 0.7054 -0.0000
vn -0.0459 0.9989 -0.0000
vn 0.0001 0.9903 -0.1390
vn -0.7147 0.6503 0.2575
vn -0.5374 0.7081 0.4581
vn -0.7749 0.3061 0.5530
vn 0.0001 0.9903 0.1390
vn -0.7147 -0.6503 -0.2575
vn -0.5374 -0.7081 -0.4580
vn -0.7749 -0.3061 -0.5530
vn 0.0001 -0.9903 -0.1390
vn -0.7147 -0.6503 0.2575
vn -0.7088 -0.7054 0.0000
vn -0.0459 -0.9989 0.0000
vn 0.0001 -0.9903 0.1390
vn 0.7464 -0.5142 0.4224
vn 0.7470 -0.6648 -0.0000
vn 0.7470 0.6648 0.0000
vn 0.7464 0.5142 0.4224
vn 0.7464 -0.5142 -0.4224
vn 0.7464 0.5142 -0.4224
vn 0.2997 0.6374 0.7099
vn 0.0671 0.7569 0.6501
vn 0.0690 0.8099 0.5826
vn 0.2567 0.2033 0.9449
vn -0.5374 -0.7081 0.4580
vn -0.7749 -0.3061 0.5530
vn 0.0630 -0.7895 0.6106
vn 0.0740 -0.7777 0.6243
vn 0.0659 -0.8282 0.5565
vn 0.0648 -0.6631 0.7457
vn 0.2997 -0.6374 0.7099
vn 0.2567 -0.2033 0.9449
vn 0.2997 -0.6374 -0.7099
vn 0.0671 -0.7569 -0.6501
vn 0.0690 -0.8099 -0.5826
vn 0.2567 -0.2033 -0.9449
vn 0.0630 0.7895 -0.6106
vn 0.0740 0.7777 -0.6243
vn 0.0659 0.8282 -0.5565
vn 0.0648 0.6631 -0.7457
vn 0.2997 0.6374 -0.7099
vn 0.2567 0.2033 -0.9449
vn -0.5374 0.7081 -0.4581
vn -0.7749 0.3061 -0.5530
vn -0.5206 -0.5055 -0.6880
vn -0.5206 0.5055 -0.6880
vn 0.3008 0.7696 -0.5632
vn 0.3008 -0.7696 -0.5632
vn -0.5206 -0.5055 0.6880
vn 0.3008 -0.7696 0.5632
vn 0.3008 0.7696 0.5632
vn -0.5206 0.5055 0.6880
vn 0.0690 -0.8098 -0.5826
vn 0.4293 -0.5056 -0.7484
vn 0.0690 0.8098 0.5826
vn 0.4293 0.5056 0.7484
vn 0.0671 -0.7569 0.6501
vn 0.0690 -0.8099 0.5826
vn 0.0671 0.7569 -0.6501
vn 0.0690 0.8099 -0.5826
vn 0.4293 0.5056 -0.7483
vn 0.4293 -0.5056 -0.7483
vn 0.4293 -0.5056 0.7483
vn 0.4293 0.5056 0.7483
vn 0.0690 0.8098 -0.5826
vn 0.4293 0.5056 -0.7484
vn 0.0690 -0.8098 0.5826
vn 0.4293 -0.5056 0.7484
vn 0.0630 0.7895 0.6106
vn 0.0531 0.8147 0.5774
vn 0.0648 0.6631 0.7457
vn 0.0659 0.8282 0.5565
vn 0.0740 0.7777 0.6243
vn 0.0630 -0.7895 -0.6106
vn 0.0531 -0.8147 -0.5774
vn 0.0648 -0.6631 -0.7457
vn 0.0659 -0.8282 -0.5565
vn 0.0740 -0.7777 -0.6243
vn 0.0241 0.9997 -0.0000
vn 0.0593 0.9982 0.0000
vn 0.0114 0.9438 0.3303
vn 0.0027 0.9819 0.1894
vn 0.0114 -0.9438 -0.3303
vn 0.0027 -0.9819 -0.1894
vn 0.0241 -0.9997 0.0000
vn 0.0593 -0.9982 -0.0000
vn -0.0110 -0.9438 0.3302
vn -0.0107 -0.9461 0.3236
vn -0.0108 -0.9839 0.1783
vn -0.0115 -0.9835 0.1808
vn -0.0110 0.9438 -0.3302
vn -0.0107 0.9461 -0.3236
vn -0.0108 0.9839 -0.1783
vn -0.0115 0.9835 -0.1808
vn 0.0716 -0.7935 0.6043
vn 0.0553 -0.6544 0.7541
vn 0.0398 -0.7111 0.7019
vn 0.0716 0.7935 -0.6043
vn 0.0553 0.6544 -0.7541
vn 0.0398 0.7111 -0.7019
vn 0.0398 0.7111 0.7019
vn 0.0553 0.6544 0.7541
vn 0.0716 0.7935 0.6043
vn 0.0398 -0.7111 -0.7019
vn 0.0553 -0.6544 -0.7541
vn 0.0716 -0.7935 -0.6043
vn -0.0107 0.9461 0.3236
vn -0.0110 0.9438 0.3302
vn -0.0115 0.9835 0.1808
vn -0.0108 0.9839 0.1783
vn -0.0107 -0.9461 -0.3236
vn -0.0110 -0.9438 -0.3302
vn -0.0115 -0.9835 -0.1808
vn -0.0108 -0.9839 -0.1783
vn -0.0110 0.9439 0.3302
vn -0.1305 0.5647 0.8149
vn -0.1602 0.4446 0.8813
vn -0.9485 0.1889 0.2544
vn -0.5207 0.5055 -0.6881
vn -0.5206 -0.5055 -0.6881
vn -0.9485 -0.1889 0.2544
vn -0.9485 0.1889 0.2543
vn -0.9485 -0.1889 -0.2544
vn -0.5206 -0.5055 0.6881
vn -0.5207 0.5055 0.6881
vn -0.9485 0.1889 -0.2544
vn -0.9485 -0.1889 -0.2543
vn -0.0041 -0.9881 0.1540
vn -0.0077 -0.9859 0.1671
vn -0.0041 0.9881 -0.1540
vn -0.0077 0.9859 -0.1671
vn -0.9485 -0.1889 0.2543
vn -0.9485 0.1889 -0.2543
vn -0.0077 0.9859 0.1671
vn -0.0041 0.9881 0.1540
vn -0.0077 -0.9859 -0.1671
vn -0.0041 -0.9881 -0.1540
vn -0.1305 -0.5647 0.8149
vn -0.1602 -0.4446 0.8813
vn -0.0110 -0.9439 0.3302
vn -0.1305 -0.5647 -0.8149
vn -0.1602 -0.4446 -0.8813
vn -0.0110 -0.9439 -0.3302
vn -0.0110 0.9439 -0.3302
vn -0.1602 0.4446 -0.8813
vn -0.1305 0.5647 -0.8149
vn 0.0950 -0.9955 0.0000
vn 0.0950 0.9955 -0.0000
vn 0.1424 -0.9898 -0.0000
vn 0.1907 -0.9817 -0.0000
vn 0.4333 -0.6964 0.5720
vn 0.1424 0.9898 -0.0000
vn 0.7464 -0.5143 0.4224
vn 0.7464 0.5143 0.4224
vn 0.4925 0.5145 0.7020
vn 0.4925 -0.5145 0.7020
vn 0.4333 0.6964 0.5720
vn 0.1905 0.9817 0.0000
vn 0.1906 -0.9817 -0.0000
vn 0.4925 -0.5145 -0.7020
vn 0.4333 0.6964 -0.5720
vn 0.4333 -0.6964 -0.5720
vn 0.1906 0.9817 0.0000
vn 0.4925 0.5145 -0.7020
vn 0.7464 0.5143 -0.4224
vn 0.7464 -0.5143 -0.4224
usemtl wire_135110008.001
s off
f 33/49/41 37/50/42 38/51/43
f 39/52/44 40/53/45 41/54/46
f 42/55/47 43/56/48 44/57/49 45/58/50
f 46/59/51 47/60/52 48/61/53 49/62/54
f 50/63/55 51/64/56 52/65/57 53/66/58
f 54/67/59 55/68/60 56/69/61 57/70/62
f 43/56/48 46/59/51 49/62/54 44/57/49
f 55/68/60 50/63/55 53/66/58 56/69/61
f 72/71/63 80/72/64 86/73/65 73/74/66
f 79/75/67 87/76/68 86/73/65 80/72/64
f 76/77/69 88/78/70 89/79/71 90/80/72
f 47/60/52 91/81/73 92/82/74 48/61/53
f 33/83/41 36/84/75 93/85/76 94/86/77 95/87/78
f 67/88/79 76/77/69 90/80/72 96/89/80
f 84/90/81 97/91/82 98/92/83 99/93/84
f 39/94/44 100/95/85 101/96/86 102/97/87 103/98/88
f 68/99/89 84/90/81 99/93/84 104/100/90
f 51/64/56 105/101/91 106/102/92 52/65/57
f 46/59/51 54/67/59 91/81/73 47/60/52
f 46/59/51 43/56/48 55/68/60 54/67/59
f 43/56/48 42/55/47 50/63/55 55/68/60
f 42/55/47 105/101/91 51/64/56 50/63/55
f 107/103/93 108/104/94 109/105/95 110/106/96
f 111/107/97 112/108/98 113/109/99 114/110/100
f 99/93/84 98/92/101 115/111/102
f 90/80/72 89/79/103 116/112/104
f 120/113/105 67/88/79 96/89/80 121/114/106
f 69/115/107 68/99/89 104/100/90 122/116/108
f 123/117/109 104/100/90 99/93/84 115/111/110
f 124/118/111 96/89/80 90/80/72 116/112/112
f 122/119/113 104/100/90 123/117/114
f 121/120/115 96/89/80 124/118/116
f 60/121/117 59/122/118 125/123/119 126/124/120 127/125/121
f 63/126/122 62/127/123 128/128/124 129/129/125 130/130/126
f 130/130/126 129/129/125 131/131/102 132/132/96
f 127/125/121 126/124/120 133/133/104 134/134/99
f 135/135/127 58/136/128 39/52/44 41/54/46
f 136/137/129 59/138/118 137/139/130
f 138/140/131 62/141/123 139/142/132
f 140/143/133 34/144/134 33/49/41 38/51/43
f 137/139/130 59/138/118 58/136/128 135/135/127
f 139/142/132 62/141/123 34/144/134 140/143/133
f 37/50/42 33/49/41 95/145/78
f 128/146/124 62/141/123 138/140/131
f 40/53/45 39/52/44 103/147/88
f 125/148/119 59/138/118 136/137/129
f 141/149/109 142/150/95 132/132/96 131/131/110
f 143/151/111 144/152/98 134/134/99 133/133/112
f 102/153/87 101/154/86 142/150/95 141/149/114
f 94/155/77 93/156/76 144/152/98 143/151/116
f 145/157/135 146/158/136 147/159/137 148/160/138
f 149/161/139 150/162/140 151/163/141 152/164/142
f 153/165/143 154/166/77 155/167/144 156/168/145
f 157/169/146 158/170/87 159/171/147 160/172/148
f 161/173/149 162/174/150 163/175/120 164/176/151
f 165/177/152 166/178/153 167/179/125 168/180/154
f 168/180/154 167/179/125 169/181/102 170/182/96
f 164/176/151 163/175/120 171/183/104 172/184/99
f 173/185/49 174/186/49 152/164/142 151/163/141
f 175/187/155 176/188/156 177/189/157 178/190/158
f 179/191/159 180/192/160 181/193/161 182/194/162
f 183/195/61 184/196/61 148/160/138 147/159/137
f 178/190/158 177/189/157 174/186/49 173/185/49
f 182/194/162 181/193/161 184/196/61 183/195/61
f 146/158/136 145/157/135 156/197/145 155/198/144
f 166/199/153 165/200/152 180/192/160 179/191/159
f 150/162/140 149/161/139 160/201/148 159/202/147
f 162/203/150 161/204/149 176/188/156 175/187/155
f 185/205/109 186/206/95 170/182/96 169/181/110
f 187/207/111 188/208/98 172/184/99 171/183/112
f 158/209/87 157/210/146 186/206/95 185/205/114
f 154/211/77 153/212/143 188/208/98 187/207/116
f 189/213/163 190/214/155 191/215/164 192/216/165
f 193/217/166 108/104/167 107/103/168 194/218/169
f 109/105/95 108/104/94 193/217/170
f 195/219/171 111/107/172 114/110/173 196/220/174
f 112/108/98 111/107/97 195/219/175
f 197/221/135 198/222/136 199/223/176 200/224/177
f 201/225/139 202/226/140 203/227/178 204/228/179
f 194/218/180 107/103/93 110/106/96
f 196/220/181 114/110/100 113/109/99
f 205/229/49 206/230/49 204/228/179 203/227/178
f 190/214/155 189/213/156 207/231/182 208/232/183
f 209/233/159 210/234/160 211/235/184 212/236/185
f 213/237/61 214/238/61 200/224/177 199/223/176
f 208/232/183 207/231/182 206/230/49 205/229/49
f 212/236/185 211/235/184 214/238/61 213/237/61
f 215/239/186 216/240/187 192/216/165 191/215/164
f 198/222/136 197/221/188 216/240/187 215/239/186
f 217/241/189 218/242/190 210/234/191 209/233/159
f 202/226/140 201/225/192 219/243/193 220/244/194
f 220/244/194 219/243/193 218/242/190 217/241/189
f 92/82/74 91/81/73 54/67/59 57/70/62
f 106/102/92 105/101/91 42/55/47 45/58/50
s 1
f 33/49/41 34/245/134 35/246/195 36/247/75
f 58/248/128 59/249/118 60/250/117 61/251/196
f 34/245/134 62/252/123 63/253/122 35/246/195
f 64/254/197 65/255/198 66/256/199 67/257/79
f 68/258/89 69/259/107 70/260/196 71/261/200
f 72/262/201 73/263/202 74/264/203 75/265/204
f 76/266/69 77/267/205 78/268/206 71/261/200
f 79/75/67 80/72/64 81/269/207 82/270/208
f 68/258/89 71/261/200 78/268/206 83/271/209
f 84/90/81 68/99/89 83/272/209 85/273/210
f 81/269/207 80/72/64 72/71/63 75/274/204
f 74/275/203 73/74/66 86/73/65 117/276/211
f 117/276/211 86/73/65 87/76/68 118/277/212
f 118/278/212 87/279/213 79/280/214 82/281/208
f 77/282/205 76/77/69 67/88/79 66/283/199
f 65/255/198 64/254/197 84/284/81 85/285/210
f 119/286/195 64/254/197 67/257/79 120/287/105
f 88/288/70 76/266/69 71/261/200 70/260/196
f 97/289/82 84/284/81 64/254/197 119/286/195
f 100/290/85 39/52/44 58/248/128 61/251/196
