# 3ds Max Wavefront OBJ Exporter v0.97b - (c)2007 guruware
# File Created: 21.11.2018 13:05:57

mtllib SpaceShip1.mtl

#
# object Box002
#

v  -2.3233 0.0000 92.9677
v  -2.3233 -1.8834 84.3732
v  0.9891 -1.5674 84.3732
v  0.9891 0.0000 92.6257
v  -3.5187 0.0000 93.0088
v  -3.5187 -0.0229 92.8659
v  -2.3233 5.7468 75.7788
v  -3.5187 5.7468 75.7376
v  -3.5187 5.7697 75.8806
v  -23.5883 6.5330 81.3078
v  -23.5883 6.7374 84.3732
v  -20.9875 6.8568 84.3732
v  -20.9875 6.4341 80.6045
v  -23.5883 6.5330 87.4387
v  -21.3700 5.9890 90.9059
v  -20.9875 5.8962 91.4933
v  -20.9875 6.4341 88.1420
v  -23.5883 -0.7862 81.3078
v  -21.3700 -0.2422 77.8406
v  -20.9875 -0.1494 77.2532
v  -20.9875 -0.6873 80.6045
v  -23.5883 -0.7862 87.4387
v  -23.5883 -0.9906 84.3732
v  -20.9875 -1.1100 84.3732
v  -20.9875 -0.6873 88.1420
v  -2.3233 7.6302 84.3732
v  -2.3233 5.7468 92.9677
v  0.9891 5.7468 92.6257
v  0.9891 7.3142 84.3732
v  -2.3233 0.0000 75.7788
v  0.9891 0.0000 76.1208
v  7.2493 -0.9700 84.3732
v  7.9634 -0.8313 84.3732
v  7.9634 0.0825 91.5388
v  7.2493 0.0000 91.9793
v  7.2493 5.7468 76.7671
v  2.2390 5.7468 76.2499
v  2.2390 7.1949 84.3732
v  7.2493 6.7168 84.3732
v  14.6079 0.8497 87.4396
v  14.6079 4.8971 87.4396
v  8.8994 5.5563 90.9613
v  8.8994 0.1905 90.9613
v  7.2493 5.7468 91.9793
v  7.9634 5.6644 91.5388
v  7.9634 6.5782 84.3732
v  14.6079 0.8497 81.3069
v  14.6079 0.4587 84.3732
v  8.8994 -0.6496 84.3732
v  8.8994 0.1905 77.7851
v  7.9634 5.6644 77.2077
v  7.2493 0.0000 76.7671
v  7.9634 0.0825 77.2077
v  14.6079 5.2882 84.3732
v  14.6079 4.8971 81.3069
v  2.2390 5.7468 92.4966
v  2.2390 4.7468 92.8912
v  4.8615 4.7468 92.5805
v  -21.3700 -0.2422 90.9059
v  -20.9875 -0.1494 91.4933
v  0.9891 1.0000 93.0393
v  -3.5187 1.0000 93.5733
v  -3.5187 0.0689 93.1328
v  4.8615 1.0000 92.5805
v  2.2390 0.0000 76.2499
v  2.2390 1.0000 75.8553
v  4.8615 1.0000 76.1660
v  0.9891 5.7468 76.1208
v  0.9891 4.7468 75.7072
v  -3.5187 4.7468 75.1731
v  -3.5187 5.6779 75.6136
v  4.8615 4.7468 76.1660
v  -21.3700 5.9890 77.8406
v  -20.9875 5.8962 77.2532
v  -14.5499 2.1121 64.2774
v  -14.5499 3.6347 64.2774
v  -13.3544 3.7032 65.0096
v  -13.3544 2.0436 65.0096
v  -14.5499 2.1121 104.4690
v  -13.3544 2.0436 103.7369
v  -13.3544 3.7032 103.7369
v  -14.5499 3.6347 104.4690
v  2.2390 1.1502 74.5598
v  2.2390 4.5966 94.1866
v  8.8994 6.3964 84.3732
v  8.8994 5.5563 77.7851
v  2.2390 -1.4481 84.3732
v  2.2390 0.0000 92.4966
v  2.2390 1.0000 92.8912
v  2.2390 4.7468 75.8553
v  2.2390 4.5966 74.5598
v  2.2390 1.1502 94.1866
v  -3.5187 5.6779 93.1328
v  -3.5187 4.7468 93.5733
v  0.9891 4.7468 93.0393
v  -3.5187 0.0689 75.6136
v  -3.5187 1.0000 75.1731
v  0.9891 1.0000 75.7072
v  -3.5187 1.4801 71.0336
v  0.9891 1.2219 73.7943
v  -3.5187 4.2667 97.7129
v  0.9891 4.5250 94.9522
v  -3.5187 7.6591 84.3732
v  -3.5187 5.7468 93.0088
v  -3.5187 5.7697 92.8659
v  -3.5187 0.0000 75.7376
v  -3.5187 -0.0229 75.8806
v  -3.5187 -1.9123 84.3732
v  -3.5187 4.2667 71.0336
v  0.9891 4.5250 73.7943
v  -3.5187 1.4801 97.7129
v  0.9891 1.2219 94.9522
v  -5.2462 0.0000 92.9515
v  -10.7638 0.0000 92.7685
v  -10.7638 -0.2985 90.9067
v  -5.2462 -0.0886 92.3987
v  -5.2462 5.7468 75.7949
v  -10.7638 5.7468 75.9780
v  -10.7638 6.0453 77.8398
v  -5.2462 5.8354 76.3478
v  -5.2462 1.0000 93.7780
v  -10.7638 1.0000 94.4317
v  -10.7638 0.8970 94.3830
v  -5.2462 0.2663 93.4309
v  -5.2462 4.7468 74.9685
v  -10.7638 4.7468 74.3148
v  -10.7638 4.8498 74.3635
v  -5.2462 5.4805 75.3156
v  -5.2462 5.4805 93.4309
v  -10.7638 4.8498 94.3830
v  -10.7638 4.7468 94.4317
v  -5.2462 4.7468 93.7780
v  -5.2462 0.2663 75.3156
v  -10.7638 0.8970 74.3635
v  -10.7638 1.0000 74.3148
v  -5.2462 1.0000 74.9685
v  -10.7638 1.8952 66.5962
v  -5.2462 1.5791 69.9755
v  -10.7638 3.8516 102.1502
v  -5.2462 4.1677 98.7710
v  -10.7638 7.3264 84.3732
v  -5.2462 7.5798 84.3732
v  -10.7638 5.7468 92.7685
v  -5.2462 5.7468 92.9515
v  -5.2462 5.8354 92.3987
v  -10.7638 6.0453 90.9067
v  -10.7638 0.0000 75.9780
v  -5.2462 0.0000 75.7949
v  -5.2462 -0.0886 76.3478
v  -10.7638 -0.2985 77.8398
v  -10.7638 -1.5795 84.3732
v  -5.2462 -1.8330 84.3732
v  -10.7638 3.8516 66.5962
v  -5.2462 4.1677 69.9755
v  -10.7638 1.8952 102.1502
v  -5.2462 1.5791 98.7710
v  -13.3544 5.7468 92.6825
v  -17.4008 5.7468 92.5483
v  -17.4008 5.4048 93.1639
v  -13.3544 4.9406 94.1337
v  -13.3544 4.0956 68.3928
v  -13.3544 1.6512 68.3928
v  -13.3544 1.6512 100.3536
v  -13.3544 4.0956 100.3536
v  -13.3544 0.0000 92.6825
v  -17.4008 0.0000 92.5483
v  -17.4008 -0.5509 89.1119
v  -13.3544 -0.3970 90.2061
v  -13.3544 5.7468 76.0639
v  -17.4008 5.7468 76.1982
v  -17.4008 6.2977 79.6346
v  -13.3544 6.1438 78.5404
v  -17.4008 7.0216 84.3732
v  -13.3544 7.2074 84.3732
v  -13.3544 6.1438 90.2061
v  -17.4008 6.2977 89.1119
v  -17.4008 0.0000 76.1982
v  -13.3544 0.0000 76.0639
v  -13.3544 -0.3970 78.5404
v  -17.4008 -0.5509 79.6346
v  -17.4008 -1.2747 84.3732
v  -13.3544 -1.4606 84.3732
v  -17.4008 0.3420 93.1639
v  -13.3544 0.8062 94.1337
v  -17.4008 0.3420 75.5825
v  -13.3544 0.8062 74.6128
v  -13.3544 4.9406 74.6128
v  -17.4008 5.4048 75.5825
# 188 vertices

vn 0.0531 -0.8147 0.5774
vn 0.0593 -0.9982 -0.0000
vn 0.0950 -0.9955 0.0000
vn 0.0630 -0.7895 0.6106
vn 0.0114 -0.9438 0.3303
vn 0.0027 -0.9819 0.1894
vn 0.0531 0.8147 -0.5774
vn 0.0114 0.9438 -0.3303
vn 0.0027 0.9819 -0.1894
vn -0.7147 0.6503 -0.2575
vn -0.7088 0.7054 0.0000
vn -0.0459 0.9989 0.0000
vn 0.0001 0.9903 -0.1390
vn -0.7147 0.6503 0.2575
vn -0.5374 0.7081 0.4581
vn -0.7749 0.3061 0.5530
vn 0.0001 0.9903 0.1390
vn -0.7147 -0.6503 -0.2575
vn -0.5374 -0.7081 -0.4581
vn -0.7749 -0.3061 -0.5530
vn 0.0001 -0.9903 -0.1390
vn -0.7147 -0.6503 0.2575
vn -0.7088 -0.7054 -0.0000
vn -0.0459 -0.9989 -0.0000
vn 0.0001 -0.9903 0.1390
vn 0.0593 0.9982 -0.0000
vn 0.0531 0.8147 0.5774
vn 0.0630 0.7895 0.6106
vn 0.0950 0.9955 -0.0000
vn 0.0531 -0.8147 -0.5774
vn 0.0630 -0.7895 -0.6106
vn 0.1424 -0.9898 -0.0000
vn 0.1906 -0.9817 -0.0000
vn 0.4333 -0.6964 0.5720
vn 0.2997 -0.6374 0.7099
vn 0.2997 0.6374 -0.7099
vn 0.0671 0.7569 -0.6501
vn 0.1424 0.9898 -0.0000
vn 0.7464 -0.5142 0.4224
vn 0.7464 0.5142 0.4224
vn 0.4925 0.5145 0.7020
vn 0.4925 -0.5145 0.7020
vn 0.2997 0.6374 0.7099
vn 0.4333 0.6964 0.5720
vn 0.1906 0.9817 -0.0000
vn 0.7464 -0.5142 -0.4224
vn 0.7470 -0.6648 -0.0000
vn 0.4925 -0.5145 -0.7020
vn 0.4333 0.6964 -0.5720
vn 0.2997 -0.6374 -0.7099
vn 0.4333 -0.6964 -0.5720
vn 0.7470 0.6648 0.0000
vn 0.7464 0.5142 -0.4224
vn 0.0671 0.7569 0.6501
vn 0.0690 0.8099 0.5826
vn 0.2567 0.2033 0.9449
vn -0.5374 -0.7081 0.4581
vn -0.7749 -0.3061 0.5530
vn 0.0740 -0.7777 0.6243
vn 0.0659 -0.8282 0.5565
vn 0.0648 -0.6631 0.7457
vn 0.2567 -0.2033 0.9449
vn 0.0671 -0.7569 -0.6501
vn 0.0690 -0.8099 -0.5826
vn 0.2567 -0.2033 -0.9449
vn 0.0630 0.7895 -0.6106
vn 0.0740 0.7777 -0.6243
vn 0.0659 0.8282 -0.5565
vn 0.0648 0.6631 -0.7457
vn 0.2567 0.2033 -0.9449
vn -0.5374 0.7081 -0.4581
vn -0.7749 0.3061 -0.5530
vn -0.5206 -0.5055 -0.6880
vn -0.5206 0.5055 -0.6880
vn 0.3008 0.7696 -0.5632
vn 0.3008 -0.7696 -0.5632
vn -0.5206 -0.5055 0.6880
vn 0.3008 -0.7696 0.5632
vn 0.3008 0.7696 0.5632
vn -0.5206 0.5055 0.6880
vn 0.4293 -0.5056 -0.7483
vn 0.4293 0.5056 0.7483
vn 0.4925 0.5145 -0.7020
vn 0.0671 -0.7569 0.6501
vn 0.0690 -0.8099 0.5826
vn 0.0690 0.8099 -0.5826
vn 0.4293 0.5056 -0.7483
vn 0.4293 -0.5056 0.7483
vn 0.0648 0.6631 0.7457
vn 0.0659 0.8282 0.5565
vn 0.0740 0.7777 0.6243
vn 0.0648 -0.6631 -0.7457
vn 0.0659 -0.8282 -0.5565
vn 0.0740 -0.7777 -0.6243
vn 0.0241 0.9997 -0.0000
vn 0.0114 0.9438 0.3303
vn 0.0027 0.9819 0.1894
vn 0.0114 -0.9438 -0.3303
vn 0.0027 -0.9819 -0.1894
vn 0.0241 -0.9997 -0.0000
vn -0.0110 -0.9439 0.3302
vn -0.0107 -0.9461 0.3236
vn -0.0108 -0.9839 0.1783
vn -0.0115 -0.9835 0.1808
vn -0.0110 0.9439 -0.3302
vn -0.0107 0.9461 -0.3236
vn -0.0108 0.9839 -0.1783
vn -0.0115 0.9835 -0.1808
vn 0.0716 -0.7935 0.6043
vn 0.0553 -0.6544 0.7541
vn 0.0398 -0.7111 0.7019
vn 0.0716 0.7935 -0.6043
vn 0.0553 0.6544 -0.7541
vn 0.0398 0.7111 -0.7019
vn 0.0398 0.7111 0.7019
vn 0.0553 0.6544 0.7541
vn 0.0716 0.7935 0.6043
vn 0.0398 -0.7111 -0.7019
vn 0.0553 -0.6544 -0.7541
vn 0.0716 -0.7935 -0.6043
vn -0.0459 0.9989 -0.0000
vn -0.0107 0.9461 0.3236
vn -0.0110 0.9439 0.3302
vn -0.0115 0.9835 0.1808
vn -0.0108 0.9839 0.1783
vn -0.0107 -0.9461 -0.3236
vn -0.0110 -0.9439 -0.3302
vn -0.0115 -0.9835 -0.1808
vn -0.0108 -0.9839 -0.1783
vn -0.1305 0.5647 0.8149
vn -0.1602 0.4446 0.8813
vn -0.9485 0.1889 0.2544
vn -0.9485 -0.1889 0.2544
vn -0.9485 -0.1889 -0.2544
vn -0.9485 0.1889 -0.2544
vn -0.0041 -0.9881 0.1540
vn -0.0077 -0.9859 0.1671
vn -0.0041 0.9881 -0.1540
vn -0.0077 0.9859 -0.1671
vn -0.0077 0.9859 0.1671
vn -0.0041 0.9881 0.1540
vn -0.0077 -0.9859 -0.1671
vn -0.0041 -0.9881 -0.1540
vn -0.0459 -0.9989 0.0000
vn -0.1305 -0.5647 0.8149
vn -0.1602 -0.4446 0.8813
vn -0.1305 -0.5647 -0.8149
vn -0.1602 -0.4446 -0.8813
vn -0.1602 0.4446 -0.8813
vn -0.1305 0.5647 -0.8149
# 150 vertex normals

vt 1.0000 0.0000 0.0000
vt 1.0000 0.5000 0.0000
vt 0.8079 0.5960 0.0000
vt 0.8079 0.1921 0.0000
vt 0.9807 0.0000 0.0000
vt 0.0000 1.0000 0.0000
vt 0.0193 1.0000 0.0000
vt 0.3333 1.0000 0.0000
vt 0.5000 1.0000 0.0000
vt 0.2716 1.0000 0.0000
vt 0.6667 1.0000 0.0000
vt 1.0000 1.0000 0.0000
vt 0.7284 1.0000 0.0000
vt 0.3333 0.0000 0.0000
vt 0.0000 0.0000 0.0000
vt 0.2716 0.0000 0.0000
vt 0.6667 0.0000 0.0000
vt 0.5000 0.0000 0.0000
vt 0.7284 0.0000 0.0000
vt 0.0000 0.5000 0.0000
vt 0.1921 0.0000 0.0000
vt 0.1921 0.4040 0.0000
vt 0.8079 1.0000 0.0000
vt 0.5000 0.7500 0.0000
vt 0.3073 0.8463 0.0000
vt 0.3073 0.6927 0.0000
vt 0.5000 0.5000 0.0000
vt 0.2307 0.7693 0.0000
vt 0.2307 0.3846 0.0000
vt 0.5000 0.2500 0.0000
vt 0.7500 0.0000 0.0000
vt 0.7500 1.0000 0.0000
vt 0.7072 1.0000 0.0000
vt 0.7072 0.0000 0.0000
vt 0.6927 0.0000 0.0000
vt 0.6927 0.1537 0.0000
vt 0.2500 1.0000 0.0000
vt 0.2500 0.8750 0.0000
vt 0.2928 0.8536 0.0000
vt 0.2928 1.0000 0.0000
vt 0.6927 0.3073 0.0000
vt 0.3073 1.0000 0.0000
vt 0.3073 0.0000 0.0000
vt 0.2500 0.7500 0.0000
vt 0.7500 0.1250 0.0000
vt 0.7500 0.2500 0.0000
vt 0.2307 1.0000 0.0000
vt 0.4066 1.0000 0.0000
vt 0.3828 0.0000 0.0000
vt 0.2285 0.0000 0.0000
vt 0.7693 0.0000 0.0000
vt 0.5934 0.0000 0.0000
vt 0.6172 1.0000 0.0000
vt 0.7715 1.0000 0.0000
vt 0.0483 1.0000 0.0000
vt 0.9517 0.0000 0.0000
vt 0.5795 0.0000 0.0000
vt 0.4205 1.0000 0.0000
vt 0.2928 0.7072 0.0000
vt 0.7072 0.1464 0.0000
vt 0.7072 0.2928 0.0000
vt 0.2500 0.0000 0.0000
vt 0.2928 0.0000 0.0000
vt 0.6927 1.0000 0.0000
vt 0.7693 0.6154 0.0000
vt 0.7693 0.2307 0.0000
vt 0.2307 0.0000 0.0000
vt 0.7693 1.0000 0.0000
vt 0.4066 0.0000 0.0000
vt 0.5934 1.0000 0.0000
vt 0.1921 0.8079 0.0000
vt 0.1921 1.0000 0.0000
vt 0.2285 1.0000 0.0000
vt 0.3828 1.0000 0.0000
vt 0.8079 0.0000 0.0000
vt 0.7715 0.0000 0.0000
vt 0.6172 0.0000 0.0000
vt 0.7311 0.0000 0.0000
vt 0.5997 0.0000 0.0000
vt 0.2689 1.0000 0.0000
vt 0.4003 1.0000 0.0000
vt 0.9807 1.0000 0.0000
vt 0.0193 0.0000 0.0000
vt 0.8735 0.0000 0.0000
vt 0.9624 0.0000 0.0000
vt 0.1265 1.0000 0.0000
vt 0.0376 1.0000 0.0000
vt 0.1942 0.0000 0.0000
vt 0.0273 0.0000 0.0000
vt 0.8058 1.0000 0.0000
vt 0.9727 1.0000 0.0000
vt 0.0273 1.0000 0.0000
vt 0.1942 1.0000 0.0000
vt 0.9727 0.0000 0.0000
vt 0.8058 0.0000 0.0000
vt 0.9025 0.0000 0.0000
vt 0.7604 0.0000 0.0000
vt 0.0975 1.0000 0.0000
vt 0.2396 1.0000 0.0000
vt 0.9624 1.0000 0.0000
vt 0.8735 1.0000 0.0000
vt 0.0376 0.0000 0.0000
vt 0.1265 0.0000 0.0000
vt 0.7731 0.0000 0.0000
vt 0.8426 0.0000 0.0000
vt 0.2269 1.0000 0.0000
vt 0.1574 1.0000 0.0000
vt 0.8426 1.0000 0.0000
vt 0.7731 1.0000 0.0000
vt 0.1574 0.0000 0.0000
vt 0.2269 0.0000 0.0000
# 111 texture coords

o Box002
g Box002
usemtl wire_135110008
s 2
f 1/1/1 2/2/2 3/3/3 4/4/4 
s off
f 1/1/1 5/1/5 6/5/6 
f 7/6/7 8/6/8 9/7/9 
f 10/8/10 11/9/11 12/9/12 13/10/13 
f 14/11/14 15/12/15 16/12/16 17/13/17 
f 18/14/18 19/15/19 20/15/20 21/16/21 
f 22/17/22 23/18/23 24/18/24 25/19/25 
f 11/9/11 14/11/14 17/13/17 12/9/12 
f 23/18/23 18/14/18 21/16/21 24/18/24 
s 4
f 26/20/26 27/15/27 28/21/28 29/22/29 
s 2
f 2/2/2 30/12/30 31/23/31 3/3/3 
f 32/24/32 33/25/33 34/26/34 35/27/35 
s 4
f 36/27/36 37/28/37 38/29/29 39/30/38 
s 8
f 40/31/39 41/32/40 42/33/41 43/34/42 
s 4
f 44/18/43 45/35/44 46/36/45 39/30/38 
s 2
f 47/37/46 48/38/47 49/39/33 50/40/48 
s 4
f 36/27/36 39/30/38 46/36/45 51/41/49 
s 32
f 52/18/50 36/9/36 51/42/49 53/43/51 
s off
f 40/44/39 48/38/47 54/45/52 41/31/40 
f 47/37/46 55/46/53 54/45/52 48/38/47 
f 44/9/43 56/47/54 57/48/55 58/9/56 
f 15/12/15 59/1/57 60/1/58 16/12/16 
f 1/15/1 4/21/4 61/49/59 62/50/60 63/15/61 
f 35/18/35 44/9/43 58/9/56 64/18/62 
f 52/18/50 65/51/63 66/52/64 67/18/65 
f 7/12/7 68/23/66 69/53/67 70/54/68 71/12/69 
f 36/9/36 52/18/50 67/18/65 72/9/70 
f 19/15/19 73/6/71 74/6/72 20/15/20 
f 14/11/14 22/17/22 59/1/57 15/12/15 
f 14/11/14 11/9/11 23/18/23 22/17/22 
f 11/9/11 10/8/10 18/14/18 23/18/23 
f 10/8/10 73/6/71 19/15/19 18/14/18 
f 75/1/73 76/6/74 77/55/75 78/56/76 
f 79/1/77 80/56/78 81/55/79 82/6/80 
f 67/18/65 66/52/64 83/57/81 
f 58/9/56 57/48/55 84/58/82 
s 2
f 49/39/33 48/38/47 40/44/39 43/59/42 
s 4
f 42/34/41 41/31/40 54/45/52 85/60/45 
f 85/60/45 54/45/52 55/46/53 86/61/83 
s 32
f 86/40/83 55/37/53 47/62/46 50/63/48 
s 8
f 45/64/44 44/9/43 35/18/35 34/35/34 
s 2
f 33/25/33 32/24/32 52/9/50 53/42/51 
f 87/65/3 32/24/32 35/27/35 88/66/84 
s 4
f 56/67/54 44/18/43 39/30/38 38/29/29 
s 2
f 65/68/63 52/9/50 32/24/32 87/65/3 
s off
f 88/67/84 35/18/35 64/18/62 89/69/85 
f 37/68/37 36/9/36 72/9/70 90/70/86 
f 91/58/87 72/9/70 67/18/65 83/57/81 
f 92/57/88 64/18/62 58/9/56 84/58/82 
f 90/48/86 72/9/70 91/58/87 
f 89/52/85 64/18/62 92/57/88 
s 4
f 68/71/66 7/6/7 26/20/26 29/22/29 
s off
f 28/72/28 27/6/27 93/6/89 94/73/90 95/74/91 
f 31/75/31 30/1/30 96/1/92 97/76/93 98/77/94 
f 98/77/94 97/76/93 99/78/81 100/79/76 
f 95/74/91 94/73/90 101/80/82 102/81/79 
f 103/9/95 26/9/26 7/6/7 9/7/9 
f 104/12/96 27/12/27 105/82/97 
f 106/15/98 30/15/30 107/83/99 
f 108/18/100 2/18/2 1/1/1 6/5/6 
f 105/82/97 27/12/27 26/9/26 103/9/95 
f 107/83/99 30/15/30 2/18/2 108/18/100 
f 5/1/5 1/1/1 63/1/61 
f 96/15/92 30/15/30 106/15/98 
f 8/6/8 7/6/7 71/6/69 
f 93/12/89 27/12/27 104/12/96 
f 109/80/87 110/81/75 100/79/76 99/78/81 
f 111/78/88 112/79/78 102/81/79 101/80/82 
f 70/73/68 69/74/67 110/81/75 109/80/87 
f 62/76/60 61/77/59 112/79/78 111/78/88 
f 113/1/101 114/1/102 115/84/103 116/85/104 
f 117/6/105 118/6/106 119/86/107 120/87/108 
f 121/88/109 122/89/60 123/15/110 124/15/111 
f 125/90/112 126/91/68 127/12/113 128/12/114 
f 129/6/115 130/6/116 131/92/90 132/93/117 
f 133/1/118 134/1/119 135/94/93 136/95/120 
f 136/95/120 135/94/93 137/96/81 138/97/76 
f 132/93/117 131/92/90 139/98/82 140/99/79 
f 141/9/121 142/9/121 120/87/108 119/86/107 
f 143/12/122 144/12/123 145/100/124 146/101/125 
f 147/15/126 148/15/127 149/102/128 150/103/129 
f 151/18/24 152/18/24 116/85/104 115/84/103 
f 146/101/125 145/100/124 142/9/121 141/9/121 
f 150/103/129 149/102/128 152/18/24 151/18/24 
f 114/1/102 113/1/101 124/1/111 123/1/110 
f 134/15/119 133/15/118 148/15/127 147/15/126 
f 118/6/106 117/6/105 128/6/114 127/6/113 
f 130/12/116 129/12/115 144/12/123 143/12/122 
f 153/98/87 154/99/75 138/97/76 137/96/81 
f 155/96/88 156/97/78 140/99/79 139/98/82 
f 126/92/68 125/93/112 154/99/75 153/98/87 
f 122/94/60 121/95/109 156/97/78 155/96/88 
f 157/12/123 158/12/122 159/12/130 160/12/131 
f 161/6/132 76/6/74 75/1/73 162/1/133 
f 77/55/75 76/6/74 161/6/132 
f 163/1/134 79/1/77 82/6/80 164/6/135 
f 80/56/78 79/1/77 163/1/134 
f 165/1/101 166/1/102 167/104/136 168/105/137 
f 169/6/105 170/6/106 171/106/138 172/107/139 
f 162/1/133 75/1/73 78/56/76 
f 164/6/135 82/6/80 81/55/79 
f 173/9/12 174/9/121 172/107/139 171/106/138 
f 158/12/122 157/12/123 175/108/140 176/109/141 
f 177/15/126 178/15/127 179/110/142 180/111/143 
f 181/18/144 182/18/24 168/105/137 167/104/136 
f 176/109/141 175/108/140 174/9/121 173/9/12 
f 180/111/143 179/110/142 182/18/24 181/18/144 
f 183/1/145 184/1/146 160/12/131 159/12/130 
f 166/1/102 165/1/101 184/1/146 183/1/145 
f 185/15/147 186/15/148 178/15/127 177/15/126 
f 170/6/106 169/6/105 187/6/149 188/6/150 
f 188/6/150 187/6/149 186/15/148 185/15/147 
f 60/1/58 59/1/57 22/17/22 25/19/25 
f 74/6/72 73/6/71 10/8/10 13/10/13 
# 98 polygons - 16 triangles

