# Blender v2.79 (sub 0) OBJ File: ''
# www.blender.org
mtllib PowerUp.mtl
o Hedra001
v 0.000000 0.039370 0.000000
v 0.027839 -0.000000 0.027839
v 0.027839 0.000000 -0.027839
v 0.000000 -0.039370 -0.000000
v -0.027839 0.000000 -0.027839
v -0.027839 -0.000000 0.027839
vt 0.000000 0.500000
vt -0.500000 0.000000
vt 0.500000 0.000000
vt 0.000000 0.500000
vt -0.500000 0.000000
vt 0.000000 -0.500000
vt 0.500000 0.000000
vt -0.500000 0.000000
vt 0.000000 -0.500000
vt 0.000000 0.500000
vt 0.500000 0.000000
vt 0.000000 -0.500000
vn 0.0000 1.0000 -0.0000
vn 0.7071 -0.0000 0.7071
vn 0.7071 0.0000 -0.7071
vn 0.0000 -1.0000 -0.0000
vn -0.7071 0.0000 -0.7071
vn -0.7071 -0.0000 0.7071
usemtl wire_153228184
s 1
f 1/1/1 2/2/2 3/3/3
f 3/4/3 4/5/4 5/6/5
f 5/7/5 6/8/6 1/1/1
f 6/9/6 4/5/4 2/10/2
f 3/4/3 5/6/5 1/11/1
f 6/9/6 2/10/2 1/11/1
f 2/2/2 4/12/4 3/3/3
f 6/8/6 5/7/5 4/12/4
